<svg xmlns="http://www.w3.org/2000/svg" width="1200" height="630" viewBox="0 0 1200 630" role="img" aria-label="HomeScan AI preview">
  <defs>
    <linearGradient id="bg" x1="0" y1="0" x2="1" y2="1">
      <stop offset="0%" stop-color="#ffffff"/>
      <stop offset="100%" stop-color="#f7fafc"/>
    </linearGradient>
  </defs>
  <rect width="1200" height="630" fill="url(#bg)"/>
  <rect x="80" y="120" width="600" height="390" rx="24" fill="#0B1F3B"/>
  <rect x="100" y="140" width="560" height="350" rx="20" fill="#ffffff"/>
  <rect x="130" y="170" width="200" height="20" rx="10" fill="#0BB889"/>
  <rect x="130" y="210" width="500" height="18" rx="9" fill="#e5e7eb"/>
  <rect x="130" y="242" width="320" height="18" rx="9" fill="#e5e7eb"/>
  <rect x="130" y="286" width="220" height="80" rx="12" fill="#f1f5f9"/>
  <rect x="370" y="286" width="220" height="80" rx="12" fill="#f1f5f9"/>
  <rect x="130" y="386" width="220" height="80" rx="12" fill="#f1f5f9"/>
  <rect x="370" y="386" width="220" height="80" rx="12" fill="#f1f5f9"/>
  <text x="720" y="240" font-family="Inter, Arial, sans-serif" font-size="44" font-weight="800" fill="#0B1F3B">HomeScan AI</text>
  <text x="720" y="290" font-family="Inter, Arial, sans-serif" font-size="28" fill="#334155">Spot property defects in seconds</text>
  <text x="720" y="330" font-family="Inter, Arial, sans-serif" font-size="20" fill="#334155">Upload viewing photos for instant, visual findings.</text>
  <rect x="720" y="370" width="240" height="54" rx="27" fill="#0BB889"/>
  <text x="760" y="407" font-family="Inter, Arial, sans-serif" font-size="20" font-weight="700" fill="#ffffff">Download the app</text>
</svg>
